<?xml version="1.0" standalone="no"?><!DOCTYPE svg PUBLIC "-//W3C//DTD SVG 1.1//EN" "http://www.w3.org/Graphics/SVG/1.1/DTD/svg11.dtd"><svg t="1707976828719" class="icon" viewBox="0 0 1024 1024" version="1.1" xmlns="http://www.w3.org/2000/svg" p-id="7728" xmlns:xlink="http://www.w3.org/1999/xlink" width="32" height="32"><path d="M0 0m113.777778 0l796.444444 0q113.777778 0 113.777778 113.777778l0 796.444444q0 113.777778-113.777778 113.777778l-796.444444 0q-113.777778 0-113.777778-113.777778l0-796.444444q0-113.777778 113.777778-113.777778Z" fill="#409EFF" p-id="7729"></path><path d="M653.824 545.137778V198.599111c0-74.126222-60.728889-134.428444-134.855111-134.428444-74.097778 0-134.826667 60.302222-134.826667 134.428444v346.453333c-60.615111 43.150222-98.56 112.839111-98.56 185.969778 0 126.520889 102.172444 229.461333 227.697778 229.461334 128.028444 0 232.533333-102.940444 232.533333-229.461334-0.028444-76.117333-34.417778-144.298667-91.989333-185.884444z m-140.487111 351.232c-90.140444 0-163.498667-74.183111-163.498667-165.347556 0-34.161778 11.576889-67.328 31.971556-94.947555h121.315555c8.846222 0 16.042667-7.793778 16.042667-16.668445 0-8.846222-7.168-16.668444-16.042667-16.668444h-88.860444c5.859556-4.579556 11.662222-8.817778 18.176-12.686222l15.36-9.301334v-44.686222h55.324444c8.846222 0 16.042667-6.286222 16.042667-15.160889 0-8.846222-7.168-15.160889-16.042667-15.160889h-55.324444v-30.293333h55.324444c8.846222 0 16.042667-6.286222 16.042667-15.160889 0-8.846222-7.168-15.160889-16.042667-15.160889h-55.324444v-36.352h55.324444c8.846222 0 16.042667-6.286222 16.042667-15.160889 0-8.874667-7.168-15.160889-16.042667-15.160889h-55.324444V348.16h55.324444c8.846222 0 16.042667-6.286222 16.042667-15.160889 0-8.846222-7.168-15.160889-16.042667-15.160889h-55.324444V281.514667h55.324444c8.846222 0 16.042667-6.286222 16.042667-15.160889 0-8.874667-7.168-15.160889-16.042667-15.160889h-55.324444v-52.622222c0-38.769778 32.455111-70.314667 71.196444-70.314667 38.769778 0 71.224889 31.544889 71.224889 70.314667v382.151111l15.189334 9.301333c48.64 28.814222 76.288 80.184889 76.288 140.970667-0.028444 91.192889-75.690667 165.376-168.362667 165.376z" fill="#FFFFFF" p-id="7730"></path><path d="M411.221333 708.778667c-3.470222 12.117333-5.831111 22.357333-5.831111 34.218666a110.364444 110.364444 0 0 0 110.193778 110.421334A110.478222 110.478222 0 0 0 625.777778 742.883556c0-11.861333-2.360889-21.959111-5.831111-34.104889h-208.725334z" fill="#FFFFFF" p-id="7731"></path></svg>