<?xml version="1.0" standalone="no"?><!DOCTYPE svg PUBLIC "-//W3C//DTD SVG 1.1//EN" "http://www.w3.org/Graphics/SVG/1.1/DTD/svg11.dtd"><svg t="1707976961654" class="icon" viewBox="0 0 1024 1024" version="1.1" xmlns="http://www.w3.org/2000/svg" p-id="8974" xmlns:xlink="http://www.w3.org/1999/xlink" width="32" height="32"><path d="M498.688 260.096c-148.48 0-269.824 121.344-269.824 269.824 0 148.48 121.344 269.824 269.824 269.824s269.824-121.344 269.824-269.824c0-148.992-121.344-269.824-269.824-269.824z m0 476.16c-113.664 0-206.336-92.16-206.336-206.336s92.16-206.336 206.336-206.336c113.664 0 206.336 92.16 206.336 206.336-0.512 113.664-92.672 206.336-206.336 206.336z" p-id="8975" fill="#1296db"></path><path d="M501.76 122.368c-17.92 0-31.744 13.824-31.744 31.744s13.824 31.744 31.744 31.744c182.784 0 332.288 148.48 332.288 332.288 0 17.92 13.824 31.744 31.744 31.744s31.744-13.824 31.744-31.744c-1.024-218.624-178.176-395.776-395.776-395.776zM190.464 530.944c0-17.92-13.824-31.744-31.744-31.744l-122.88-0.512c-17.92 0-31.744 13.824-31.744 31.744s13.824 31.744 31.744 31.744l122.368 0.512c17.92 0 32.256-13.824 32.256-31.744zM234.496 746.496l-87.04 86.016c-12.288 12.288-12.8 32.256 0 44.544 6.144 6.144 14.848 9.216 22.528 9.216 8.192 0 15.872-3.072 22.528-9.216l87.04-86.016c12.288-12.288 12.8-32.256 0-44.544-12.288-12.288-32.256-12.288-45.056 0z" p-id="8976" fill="#1296db"></path><path d="M501.76 0c-17.92 0-31.744 13.824-31.744 31.744s13.824 31.744 31.744 31.744c250.88 0 454.656 203.776 454.656 454.656 0 17.92 13.824 31.744 31.744 31.744s31.744-13.824 31.744-31.744C1019.904 232.448 787.456 0 501.76 0zM238.592 313.344c6.144 6.144 14.848 9.216 22.528 9.216 8.192 0 15.872-3.072 22.528-9.216 12.288-12.288 12.8-32.256 0-44.544l-86.016-87.04c-12.288-12.288-32.256-12.8-44.544 0-12.288 12.8-12.8 32.256 0 44.544l85.504 87.04zM757.248 747.52c-12.288-12.288-32.256-12.8-44.544 0-12.288 12.288-12.8 32.256 0 44.544l86.016 87.04c6.144 6.144 14.848 9.216 22.528 9.216 8.192 0 15.872-3.072 22.528-9.216 12.288-12.288 12.8-32.256 0-44.544l-86.528-87.04zM493.568 838.144c-17.92 0-31.744 13.824-31.744 31.744l-0.512 122.368c0 17.92 13.824 31.744 31.744 31.744s31.744-13.824 31.744-31.744l0.512-122.368c0-17.92-13.824-31.744-31.744-31.744z" p-id="8977" fill="#1296db"></path></svg>