<?xml version="1.0" standalone="no"?><!DOCTYPE svg PUBLIC "-//W3C//DTD SVG 1.1//EN" "http://www.w3.org/Graphics/SVG/1.1/DTD/svg11.dtd"><svg t="1707976905679" class="icon" viewBox="0 0 1024 1024" version="1.1" xmlns="http://www.w3.org/2000/svg" p-id="8767" xmlns:xlink="http://www.w3.org/1999/xlink" width="32" height="32"><path d="M514.56 76.8c17.92 0 32.768 14.848 32.768 32.768v57.344c0 17.92-14.848 32.768-32.768 32.768-17.92 0-32.768-14.848-32.768-32.768V109.568c0-17.92 14.336-32.768 32.768-32.768zM783.36 187.904c12.8 12.8 12.8 33.792 0 46.592l-40.448 40.448c-12.8 12.8-33.792 12.8-46.592 0s-12.8-33.792 0-46.592l40.448-40.448c12.8-12.8 33.792-12.8 46.592 0zM245.76 187.904c12.8-12.8 33.792-12.8 46.592 0l40.448 40.448c12.8 12.8 12.8 33.792 0 46.592s-33.792 12.8-46.592 0L245.76 234.496c-12.8-12.8-12.8-33.28 0-46.592zM723.968 431.104c0 11.776-1.024 23.04-3.072 34.816H307.712c-2.048-11.264-3.072-23.04-3.072-34.816-1.536-115.712 90.624-210.944 206.848-212.48 115.712-2.048 210.944 90.624 212.992 206.336-0.512 2.048-0.512 4.096-0.512 6.144z" fill="#1296db" p-id="8768"></path><path d="M888.32 499.712h-44.032V384c0-19.968-15.872-35.84-35.84-35.84s-35.84 15.872-35.84 35.84v115.712h-512V384c0-19.968-15.872-35.84-35.84-35.84s-35.84 15.872-35.84 35.84v115.712h-37.888c-22.528 0-40.96 18.432-40.96 40.96v327.68c0 22.528 18.432 40.96 40.96 40.96h737.28c22.528 0 40.96-18.432 40.96-40.96v-327.68c0-22.528-18.432-40.96-40.96-40.96z m-578.56 271.36c-36.864 0-66.56-29.696-66.56-66.56s29.696-66.56 66.56-66.56 66.56 29.696 66.56 66.56-29.696 66.56-66.56 66.56z m218.112 0c-36.864 0-66.56-29.696-66.56-66.56s29.696-66.56 66.56-66.56 66.56 29.696 66.56 66.56-30.208 66.56-66.56 66.56z m201.728 0c-36.864 0-66.56-29.696-66.56-66.56s29.696-66.56 66.56-66.56 66.56 29.696 66.56 66.56-29.696 66.56-66.56 66.56z" fill="#1296db" p-id="8769"></path></svg>