<?xml version="1.0" standalone="no"?><!DOCTYPE svg PUBLIC "-//W3C//DTD SVG 1.1//EN" "http://www.w3.org/Graphics/SVG/1.1/DTD/svg11.dtd"><svg t="1707976733669" class="icon" viewBox="0 0 1024 1024" version="1.1" xmlns="http://www.w3.org/2000/svg" p-id="7087" xmlns:xlink="http://www.w3.org/1999/xlink" width="32" height="32"><path d="M431.053874 766.990322c-19.642182 19.642182-46.559776 30.555301-74.207776 30.5553h-1.45365c-28.371245 0-54.565594-11.643524-74.207777-32.008951C261.54249 745.887329 250.629371 718.969734 250.629371 690.591329c0-28.371245 11.643524-55.296 32.008951-74.938182 24.010294-24.003133 57.480056-34.193007 90.212251-29.10165l152.783665-150.592448c11.643524-11.643524 27.640839-18.188531 45.113286-18.188532 16.72772 0 32.732196 6.545007 45.098966 18.911777 11.643524 12.366769 18.188531 28.371245 17.465286 45.113286 0 16.72772-7.275413 32.732196-18.918937 44.375721L461.609175 676.770909c4.368112 33.469762-6.545007 66.939524-30.555301 90.219413zM591.864839 481.423217c0-5.814601-2.176895-11.636364-6.545007-16.004476-3.637706-4.368112-9.452308-6.545007-15.281231-6.545007-5.814601 0-11.636364 2.184056-15.27407 6.545007l-168.780979 165.880839-11.643524-2.914461a71.751608 71.751608 0 0 0-17.465287-2.184056c-16.734881 0-32.739357 6.552168-45.106126 18.918937-12.366769 12.366769-18.911776 28.371245-19.642181 45.829371 0 17.472448 6.545007 33.469762 18.911776 45.836531 12.37393 12.37393 28.378406 19.649343 45.836531 19.649343 17.465287 0 34.193007-6.552168 46.559776-18.918937 16.011636-16.004476 22.556643-40.014769 16.734882-62.564252l-2.907301-11.643525 168.780979-167.334489c3.644867-3.637706 5.821762-8.729063 5.821762-14.550825z" fill="#1296db" p-id="7088"></path><path d="M77.788196 512l217.109482 376.037147h434.204644L946.211804 512l-217.109482-376.037147H294.897678L77.788196 512zM12.674685 495.888112l235.706182-408.260923a32.223776 32.223776 0 0 1 27.912951-16.111888h471.412364a32.223776 32.223776 0 0 1 27.912951 16.111888L1011.325315 495.888112a32.223776 32.223776 0 0 1 0 32.223776l-235.706182 408.260923a32.223776 32.223776 0 0 1-27.912951 16.111888H276.293818a32.223776 32.223776 0 0 1-27.912951-16.111888L12.674685 528.111888a32.223776 32.223776 0 0 1 0-32.223776z" fill="#1296db" p-id="7089"></path><path d="M455.859021 417.777678c-18.596699 0-33.36951-13.677203-33.369511-30.63407 0-10.941762 10.941762-31.722517 33.369511-61.268139 22.427748 29.538462 33.36951 49.782154 33.36951 61.268139 0 16.956867-14.772811 30.63407-33.36951 30.63407zM723.71021 416.810965a14.393287 14.393287 0 0 1-15.861259-3.831049c-1.646993-1.646993-2.735441-3.831049-3.831049-6.015105-7.662098-22.979133-20.780755-43.759888-38.289007-61.26814-17.501091-17.501091-37.737622-30.082685-60.723916-37.737622a15.503217 15.503217 0 0 1-9.838993-19.692308 15.503217 15.503217 0 0 1 19.692308-9.853314 187.90042 187.90042 0 0 1 72.754126 45.39972 187.90042 187.90042 0 0 1 45.39972 72.754126c3.279664 8.757706-1.095608 17.508252-9.30193 20.243692z" fill="#1296db" p-id="7090"></path><path d="M782.794294 416.25958c-5.470881 1.095608-10.941762-0.544224-14.228588-4.368111a13.068531 13.068531 0 0 1-3.823888-7.117875c-8.757706-38.289007-28.450014-72.754126-55.797259-100.652755-28.442853-27.898629-63.452196-47.046713-101.196979-55.790098-8.206322-2.191217-13.677203-10.397538-11.493146-18.60386 2.191217-8.206322 10.397538-13.677203 18.60386-11.485986 43.759888 10.390378 83.688727 32.273902 115.418405 64.003581 31.722517 31.722517 54.157427 71.658517 64.003581 115.418405a15.968671 15.968671 0 0 1-11.485986 18.596699z" fill="#1296db" p-id="7091"></path></svg>