<?xml version="1.0" standalone="no"?><!DOCTYPE svg PUBLIC "-//W3C//DTD SVG 1.1//EN" "http://www.w3.org/Graphics/SVG/1.1/DTD/svg11.dtd"><svg t="1707834066629" class="icon" viewBox="0 0 1288 1024" version="1.1" xmlns="http://www.w3.org/2000/svg" p-id="8040" xmlns:xlink="http://www.w3.org/1999/xlink" width="251.5625" height="200"><path d="M1004.487913 94.401558a6.440249 6.440249 0 0 1 6.440249 6.440249v260.752808a6.440249 6.440249 0 0 1-6.440249 6.440249h-202.996653v482.149252h67.73854c18.88281 0 34.081798 15.289151 34.081799 34.268566v99.707937c0 18.979414-15.198988 34.262125-34.081799 34.262125h-452.749514c-18.88281 0-34.088239-15.282711-34.088239-34.262125v-99.707937c0-18.979414 15.198988-34.262125 34.081798-34.262126h67.738541V367.867417h-203.125458c-3.555018-0.00644-6.440249-2.885232-6.440249-6.440249l-0.161006-260.585361a6.440249 6.440249 0 0 1 6.440249-6.440249h307.283607l54.497388 33.560139 56.783677-33.553698h304.997319z m-169.339911 807.890614H450.388197v61.819951h384.759805v-61.826392z m108.543959-602.794439v-136.72649h-237.014049l-62.766668 31.0098-54.471627-31.0098h-245.30909v136.72649h173.835205c18.87637 0 34.081798 15.289151 34.081798 34.262125v514.897919h181.273693v-514.897919c0-18.972974 15.205428-34.262125 34.081798-34.262125h176.28894zM216.394625 350.723474V117.689499h45.274952v233.033975H216.394625z m808.289909 0V117.689499h45.274952v233.033975h-45.274952z m96.893548-219.844345c-9.254638 0-18.509276-4.669181-24.685475-12.461882-10.027468-14.026863-6.942589-33.502176 6.942589-42.853417l20.885728-12.030386c13.885177-10.130512 33.173723-7.013431 42.428361 7.013432 10.033908 14.020422 6.942589 33.502176-6.942588 42.846977l-20.885728 12.036826c-5.396929 3.896351-12.339517 5.448451-17.742887 5.44845z m-11.141631 133.63517c-8.01811-4.572577-13.672649-13.202511-15.076623-22.99813-1.597182-17.105302 10.929103-32.445975 27.680191-33.682503l24.176695-0.096603c17.143943-1.906314 32.265648 10.33016 33.193044 27.049046 1.597182 17.105302-10.929103 32.445975-27.68019 33.682503l-24.170256 0.090164c-6.646337 0.708427-13.44724-1.378213-18.129301-4.044477zM1208.128591 73.290422c-9.261078 0-18.515716-4.675621-24.685475-12.468323-10.027468-14.020422-6.942589-33.502176 6.942588-42.846977l20.885728-12.036826c13.885177-10.124072 33.167283-7.006991 42.428362 7.019872 10.027468 14.020422 6.942589 33.495736-6.942589 42.846977l-20.885728 12.030386c-5.403369 3.896351-12.345958 5.454891-17.742886 5.454891z m9.808499 191.210997c-8.01811-4.572577-13.672649-13.202511-15.070183-22.99169-1.597182-17.105302 10.922663-32.445975 27.680191-33.682503l24.170255-0.096604c17.143943-1.906314 32.272088 10.33016 33.199484 27.049047 1.590742 17.105302-10.929103 32.445975-27.686631 33.682503l-24.170255 0.090163c-6.646337 0.708427-13.44724-1.378213-18.122861-4.044476z m-100.223157 57.930041c4.714262 0 10.780977 1.526339 15.495239 5.332526l18.245226 11.759895c12.126989 9.145154 14.819013 28.18253 6.060275 41.893821-8.082513 13.71129-24.923764 16.757528-37.057194 6.852425l-18.245226-11.759895c-12.126989-9.145154-14.819013-28.18253-6.060274-41.893821 5.390489-7.612374 13.473001-12.184951 21.561954-12.184951z m89.564545 71.654212c4.714262 0 10.780977 1.519899 15.495239 5.332526l18.245226 11.759895c12.126989 9.145154 14.825454 28.18253 6.066715 41.893821-8.088953 13.70485-24.936645 16.751088-37.063634 6.852425l-18.238786-11.759895c-12.133429-9.145154-14.825454-28.18253-6.066714-41.893821 5.390489-7.618815 13.473001-12.184951 21.561954-12.184951zM152.430071 125.392037c-4.720703 0-10.780977-1.519899-15.50168-5.332526l-18.238785-11.759895c-12.126989-9.145154-14.825454-28.18253-6.066715-41.893821 8.088953-13.70485 24.930204-16.751088 37.063634-6.852425l18.238785 11.759895c12.133429 9.145154 14.825454 28.18253 6.066715 41.893821-5.390489 7.618815-13.479441 12.184951-21.561954 12.184951z m19.101779 135.264553c-4.514615 2.627622-11.077229 4.669181-17.504597 3.980074l-23.339463-0.096604c-16.177906-1.210767-28.272694-16.29383-26.733475-33.109321 0.888754-16.441956 15.50168-28.465901 32.059561-26.598229l23.339463 0.096604c16.184346 1.210767 28.272694 16.29383 26.739914 33.115761-1.358893 9.634613-6.820224 18.109981-14.554963 22.611715zM80.775859 71.654598c-4.714262 0-10.780977-1.526339-15.49524-5.332526L47.035394 54.555737C34.908404 45.417023 32.20994 26.379647 40.968679 12.668356 49.057632-1.042934 65.905324-4.089172 78.032313 5.815931l18.238785 11.759895c12.133429 9.145154 14.825454 28.18253 6.066715 41.893821-5.390489 7.612374-13.473001 12.184951-21.561954 12.184951z m-13.060825 189.001992c-4.514615 2.627622-11.083669 4.669181-17.504598 3.980074l-23.339462-0.096604c-16.184346-1.210767-28.272694-16.29383-26.739915-33.109321 0.901635-16.441956 15.50168-28.465901 32.066001-26.598229l23.339462 0.096604c16.184346 1.210767 28.272694 16.29383 26.733475 33.115761-1.352452 9.634613-6.813784 18.109981-14.554963 22.611715z m102.62537 61.78131c8.088953 0 16.171466 4.572577 21.561954 12.184951 8.758739 13.71129 6.066715 32.755107-6.060275 41.893821l-18.245225 11.759895c-12.126989 9.905103-28.974681 6.858865-37.057194-6.852425-8.758739-13.71129-6.066715-32.748667 6.060274-41.893821l18.245226-11.759895c4.714262-3.806187 10.780977-5.332526 15.49524-5.332526zM80.775859 394.092112c8.088953 0 16.171466 4.572577 21.561954 12.184951 8.758739 13.71129 6.066715 32.748667-6.066715 41.893821l-18.238785 11.759895c-12.126989 9.898663-28.974681 6.852425-37.063634-6.852425-8.758739-13.717731-6.060274-32.755107 6.066715-41.893821l18.245225-11.759895c4.714262-3.812627 10.780977-5.332526 15.49524-5.332526z" fill="#1296db" p-id="8041"></path></svg>