<?xml version="1.0" standalone="no"?><!DOCTYPE svg PUBLIC "-//W3C//DTD SVG 1.1//EN" "http://www.w3.org/Graphics/SVG/1.1/DTD/svg11.dtd"><svg t="1707834147389" class="icon" viewBox="0 0 1024 1024" version="1.1" xmlns="http://www.w3.org/2000/svg" p-id="12655" xmlns:xlink="http://www.w3.org/1999/xlink" width="200" height="200"><path d="M0 0h1024v1024H0z" fill="#1296db" fill-opacity="0" p-id="12656"></path><path d="M827.733333 85.333333H196.266667c-25.6 0-46.933333 21.333333-46.933334 46.933334v759.466666c0 25.6 21.333333 46.933333 46.933334 46.933334h631.466666c25.6 0 46.933333-21.333333 46.933334-46.933334V132.266667c0-25.6-21.333333-46.933333-46.933334-46.933334z m4.266667 806.4c0 4.266667 0 4.266667 0 0L196.266667 896c-4.266667 0-4.266667 0-4.266667-4.266667V132.266667c0-4.266667 0-4.266667 4.266667-4.266667h631.466666c4.266667 0 4.266667 0 4.266667 4.266667v759.466666z" fill="#1296db" p-id="12657"></path><path d="M742.4 170.666667H281.6c-25.6 0-46.933333 21.333333-46.933333 46.933333v588.8c0 25.6 21.333333 46.933333 46.933333 46.933333h460.8c25.6 0 46.933333-21.333333 46.933333-46.933333V217.6c0-25.6-21.333333-46.933333-46.933333-46.933333z m4.266667 46.933333V640h-213.333334V213.333333l213.333334 4.266667c0-4.266667 0-4.266667 0 0z m-469.333334 0c0-4.266667 0-4.266667 0 0l213.333334-4.266667v426.666667h-213.333334V217.6z m0 588.8V682.666667h213.333334v128l-213.333334-4.266667c0 4.266667 0 4.266667 0 0z m469.333334 0c0 4.266667 0 4.266667 0 0l-213.333334 4.266667v-128h213.333334v123.733333z" fill="#1296db" p-id="12658"></path><path d="M435.2 328.533333c-8.533333-8.533333-21.333333-4.266667-29.866667 4.266667l-81.066666 119.466667c-8.533333 8.533333-4.266667 21.333333 4.266666 29.866666 8.533333 8.533333 21.333333 4.266667 29.866667-4.266666l81.066667-119.466667c8.533333-8.533333 4.266667-21.333333-4.266667-29.866667zM588.8 486.4c8.533333 8.533333 21.333333 4.266667 29.866667-4.266667l81.066666-119.466666c8.533333-8.533333 4.266667-21.333333-4.266666-29.866667-8.533333-8.533333-21.333333-4.266667-29.866667 4.266667l-81.066667 119.466666c-8.533333 8.533333-4.266667 21.333333 4.266667 29.866667z" fill="#1296db" p-id="12659"></path></svg>